<?xml version="1.0" standalone="no"?><!DOCTYPE svg PUBLIC "-//W3C//DTD SVG 1.1//EN" "http://www.w3.org/Graphics/SVG/1.1/DTD/svg11.dtd"><svg t="1591334686086" class="icon" viewBox="0 0 1024 1024" version="1.1" xmlns="http://www.w3.org/2000/svg" p-id="2568" xmlns:xlink="http://www.w3.org/1999/xlink" width="62" height="62"><defs><style type="text/css"></style></defs><path d="M339.04321422 138.82345245h-9.08765867c5.00986311 0 9.08765867-4.07779555 9.08765867-9.08765867v9.08765867h345.91357156v-9.08765867c0 4.95160889 4.07779555 9.08765867 9.08765867 9.08765867h-9.08765867V220.72888889h81.90543644V129.67753955c0-40.13715911-32.62236445-72.81777778-72.81777777-72.81777777h-364.0888889c-40.19541333 0-72.81777778 32.68061867-72.81777777 72.81777777V220.72888889h81.90543644V138.82345245zM912.49777778 220.72888889H111.50222222a36.35063467 36.35063467 0 0 0-36.40888889 36.40888889v36.40888889c0 5.00986311 4.07779555 9.08765867 9.08765867 9.08765866h68.73998222l28.07853511 595.06688a72.876032 72.876032 0 0 0 72.70126934 69.43903289h516.59844266c38.91382045 0 70.83713422-30.52521245 72.70126934-69.43903289l28.07853511-595.06688h68.73998222c5.00986311 0 9.08765867-4.07779555 9.08765867-9.08765866v-36.40888889A36.35063467 36.35063467 0 0 0 912.49777778 220.72888889z m-150.994944 664.44765866H262.49716622l-27.55424711-582.54222222h554.11416178l-27.55424711 582.54222222z" fill="rgb(191, 203, 217)" p-id="2569"></path></svg>
