<?xml version="1.0" standalone="no"?><!DOCTYPE svg PUBLIC "-//W3C//DTD SVG 1.1//EN" "http://www.w3.org/Graphics/SVG/1.1/DTD/svg11.dtd"><svg t="1591757428735" class="icon" viewBox="0 0 1024 1024" version="1.1" xmlns="http://www.w3.org/2000/svg" p-id="4306" xmlns:xlink="http://www.w3.org/1999/xlink" width="62" height="62"><defs><style type="text/css"></style></defs><path d="M601.6 870.4c0-153.6-121.6-275.2-275.2-275.2S51.2 716.8 51.2 870.4H6.4c0-147.2 96-268.8 236.8-307.2-83.2-38.4-134.4-121.6-134.4-211.2C108.8 230.4 204.8 128 332.8 128s224 102.4 224 224c0 89.6-57.6 172.8-134.4 204.8 140.8 38.4 236.8 166.4 236.8 307.2h-57.6z" fill="#4B87B9" p-id="4307"></path><path d="M332.8 179.2C236.8 179.2 153.6 256 153.6 352c0 96 76.8 172.8 172.8 172.8 96 0 172.8-76.8 172.8-172.8 6.4-96-70.4-172.8-166.4-172.8zM620.8 870.4c-12.8-160-134.4-288-288-288s-281.6 128-288 288h576zM953.6 864h-198.4V832h198.4c12.8 0 19.2-6.4 19.2-19.2V179.2c0-12.8-6.4-19.2-19.2-19.2H492.8V128H960c32 0 51.2 25.6 51.2 51.2v627.2c0 32-25.6 57.6-57.6 57.6z" fill="#4B87B9" p-id="4308"></path><path d="M595.2 262.4h320v32h-320zM595.2 403.2h320v32h-320zM595.2 544h320V576h-320z" fill="#4B87B9" p-id="4309"></path></svg>