<?xml version="1.0" standalone="no"?><!DOCTYPE svg PUBLIC "-//W3C//DTD SVG 1.1//EN" "http://www.w3.org/Graphics/SVG/1.1/DTD/svg11.dtd"><svg t="1591757466243" class="icon" viewBox="0 0 1024 1024" version="1.1" xmlns="http://www.w3.org/2000/svg" p-id="5130" xmlns:xlink="http://www.w3.org/1999/xlink" width="62" height="62"><defs><style type="text/css"></style></defs><path d="M424.448 665.6a68.608 68.608 0 0 0 3.072 16.384l-10.24 8.704 11.776-5.12a8.704 8.704 0 0 0-4.096 0 45.056 45.056 0 0 0 15.872-9.216l8.192-6.656 5.632-5.12 3.584-4.096 32.256-39.936a223.744 223.744 0 0 0 35.84-90.112 20.992 20.992 0 0 0-4.096-10.24s-3.072 5.632-5.12 7.68a22.528 22.528 0 0 1-14.848 10.24h-6.144A177.664 177.664 0 0 0 424.448 665.6zM477.184 469.504z" p-id="5131"></path><path d="M793.6 51.2h-563.2a102.4 102.4 0 0 0-102.4 102.4v716.8a102.4 102.4 0 0 0 102.4 102.4h563.2a102.4 102.4 0 0 0 102.4-102.4V153.6a102.4 102.4 0 0 0-102.4-102.4zM256 241.664h409.6v76.8H256z m236.544 204.8h3.584a70.144 70.144 0 0 1 16.896-4.608 51.2 51.2 0 0 1 35.84 12.8 38.912 38.912 0 0 1 14.848 23.04 16.384 16.384 0 0 1 0 8.192 69.632 69.632 0 0 1 13.824 40.448c8.704 88.064-51.2 204.8-145.408 223.232h-11.776c-37.376 0-60.928-38.4-65.024-74.24a240.64 240.64 0 0 1 43.52-144.384A270.336 270.336 0 0 1 468.992 460.8l4.096-3.072 14.848-8.704 6.656-3.072zM204.8 716.8a33.792 33.792 0 0 1 0-6.144 282.112 282.112 0 0 1 18.944-87.552c12.288-29.184 26.112-56.832 37.376-79.36a39.936 39.936 0 0 1-10.24 4.608h-6.144l-6.656-5.12a20.992 20.992 0 0 1-6.144-16.384 37.888 37.888 0 0 1 17.92-33.28L256 491.52c37.888-30.208 51.2-40.96 63.488-41.984a20.992 20.992 0 0 1 16.384 5.12 57.856 57.856 0 0 1 17.92 32.256 29.696 29.696 0 0 1 0 5.12c0 10.24 0 16.384-32.768 90.112l-15.36 36.352a366.592 366.592 0 0 0-32.256 102.4v23.552a17.408 17.408 0 0 1-15.872 13.824 31.232 31.232 0 0 1-12.8-4.096l-8.704-3.584A40.96 40.96 0 0 1 204.8 716.8z m94.208 163.84l-6.656 3.072a94.72 94.72 0 0 1-34.816 11.264 14.848 14.848 0 0 1-7.68 0 20.48 20.48 0 0 1-11.776-14.848 22.528 22.528 0 0 1 10.752-20.48c7.168-4.096 174.592-91.648 482.816-111.104v3.072l43.52-3.072v25.6a2043.392 2043.392 0 0 0-475.136 108.032z m358.4-177.152h-11.776c-37.376 0-60.928-38.4-65.024-74.24a240.64 240.64 0 0 1 43.52-144.384 226.304 226.304 0 0 1 115.712-90.112 51.2 51.2 0 0 1 51.2 35.84 15.872 15.872 0 0 1 0 8.704 73.216 73.216 0 0 1 13.824 39.936c8.192 90.624-53.248 207.36-145.92 225.792z" p-id="5132"></path><path d="M751.616 486.4a27.648 27.648 0 0 0-3.072-9.216l-6.144 7.68a20.48 20.48 0 0 1-15.872 10.24h-6.656a178.176 178.176 0 0 0-69.632 129.024v4.096a51.2 51.2 0 0 0 3.584 15.872 102.4 102.4 0 0 0 29.184-23.552l32.768-40.448a221.696 221.696 0 0 0 36.352-89.6z" p-id="5133"></path></svg>