<?xml version="1.0" standalone="no"?><!DOCTYPE svg PUBLIC "-//W3C//DTD SVG 1.1//EN" "http://www.w3.org/Graphics/SVG/1.1/DTD/svg11.dtd"><svg t="1591757223515" class="icon" viewBox="0 0 1024 1024" version="1.1" xmlns="http://www.w3.org/2000/svg" p-id="1317" xmlns:xlink="http://www.w3.org/1999/xlink" width="62" height="62"><defs><style type="text/css"></style></defs><path d="M928.909272 239.21215l27.319206-9.954723" p-id="1318" fill="#BFCBD9"></path><path d="M508.089947 639.84369c86.557378 0 120.29476-29.209252 120.29476-29.209252 72.618924-38.636972 110.796432-111.071701 110.796432-194.191794 0-3.453658-0.396019-6.703679-0.595564-10.085706 16.464997-12.554944 26.28669-26.094308 26.28669-39.776935l0-93.348038 102.773711-37.383422 25.695219-9.28548 25.702382-9.365298L507.878123 67.814502l0 0 0 0L96.720855 217.197764l154.163125 55.973826 0 93.40125c0 13.346983 9.821693 26.693965 26.354228 39.240723-0.199545 3.52222-0.663102 6.975878-0.663102 10.564613 0 82.410941 37.532825 154.320715 108.955504 193.263655 0.610914 0.333598 1.224898 0.664126 1.840928 0.992607C387.371538 610.634438 419.671175 639.84369 508.089947 639.84369zM507.878123 595.200934c-94.77555 0-172.706457-69.904093-181.733041-159.483294 49.342802 19.682271 119.179356 43.506886 185.102788 43.506886 65.999157 0 129.020492-23.48897 178.363294-43.047422C680.313404 525.504572 602.454128 595.200934 507.878123 595.200934L507.878123 595.200934 507.878123 595.200934zM708.649775 353.673042c0 6.259564-21.605064 14.282285-33.960463 22.600741 0 0-3.797489 2.774183-9.169847 5.655813-34.649148 19.895119-95.815229 39.537482-157.708881 39.537482-61.774949 0-122.945123-20.306488-157.597341-40.140209-4.520967-2.471284-8.318456-5.061272-8.318456-5.061272-12.950963-8.501628-31.56695-16.632819-31.56695-22.600741l0-53.575196 197.533912 67.802222 200.772676-67.802222 0 53.583382L708.649775 353.673042 708.649775 353.673042z" p-id="1319" fill="#BFCBD9"></path><path d="M903.818827 957.896466c36.370349 0 51.703569-33.20424 51.703569-69.238944 0-115.246791-272.918833-264.382413-272.918833-264.382413L561.586348 844.533582l-17.944697-52.471049 33.124422-66.230424-66.286706-66.224284-66.304102 66.224284 33.162284 66.230424-21.38096 53.714366L338.311169 624.274086c0 0-271.137257 145.042397-271.137257 263.871783 0 36.261878 14.944364 69.750597 51.541887 69.750597" p-id="1320" fill="#BFCBD9"></path><path d="M876.488365 756.877173" p-id="1321" fill="#BFCBD9"></path></svg>