<?xml version="1.0" standalone="no"?><!DOCTYPE svg PUBLIC "-//W3C//DTD SVG 1.1//EN" "http://www.w3.org/Graphics/SVG/1.1/DTD/svg11.dtd"><svg t="1591757381594" class="icon" viewBox="0 0 1170 1024" version="1.1" xmlns="http://www.w3.org/2000/svg" p-id="2277" xmlns:xlink="http://www.w3.org/1999/xlink" width="70.83984375" height="62"><defs><style type="text/css"></style></defs><path d="M1136.717636 0.81502H837.124493a32.318694 32.318694 0 0 0-32.632163 32.632164 32.308245 32.308245 0 0 0 32.632163 32.642612h299.593143a32.339592 32.339592 0 0 0 32.653061-32.642612 32.339592 32.339592 0 0 0-32.653061-32.632164z m-18.285714 395.546123a32.799347 32.799347 0 0 0-42.422858 18.923102L916.10833 827.79951C867.165309 685.484408 754.21184 575.195429 613.223758 530.160327a275.403755 275.403755 0 0 0 128.606041-233.012245c0-151.426612-122.054531-274.797714-271.527183-274.797715-150.12049 0-271.527184 123.371102-271.527184 274.797715a274.546939 274.546939 0 0 0 128.585143 233.012245C151.775922 586.292245 19.28286 742.943347 0.349309 938.109388c-1.953959 20.866612 4.566204 41.764571 18.933551 56.758857a73.633959 73.633959 0 0 0 54.167511 24.16849h795.658449c20.229224 0 40.437551-8.484571 54.16751-24.16849 13.709061-15.66302 20.866612-36.529633 18.933551-56.758857 12.956735-27.85698 78.44049-194.079347 196.461714-498.677551 5.22449-17.61698-3.260082-36.550531-20.229224-43.070694z m-9.132409-189.293714h-230.4a32.339592 32.339592 0 0 0-32.66351 32.642612 32.339592 32.339592 0 0 0 32.66351 32.632163h230.4a32.318694 32.318694 0 0 0 32.642613-32.632163 32.318694 32.318694 0 0 0-32.642613-32.642612z" p-id="2278" fill="#BFCBD9"></path></svg>